<svg width="52" height="50" viewBox="0 0 52 50" fill="none" xmlns="http://www.w3.org/2000/svg">
<g filter="url(#filter0_dd_10806_2)">
<mask id="path-1-inside-1_10806_2" fill="white">
<path d="M44 22C44 33.0457 35.0457 42 24 42C12.9543 42 4 33.0457 4 22C4 10.9543 12.9543 2 24 2C35.0457 2 44 10.9543 44 22Z"/>
</mask>
<path d="M44 22C44 33.0457 35.0457 42 24 42C12.9543 42 4 33.0457 4 22C4 10.9543 12.9543 2 24 2C35.0457 2 44 10.9543 44 22Z" fill="#F4F7FA"/>
<path d="M43.6 22C43.6 32.8248 34.8248 41.6 24 41.6V42.4C35.2666 42.4 44.4 33.2666 44.4 22H43.6ZM24 41.6C13.1752 41.6 4.4 32.8248 4.4 22H3.6C3.6 33.2666 12.7334 42.4 24 42.4V41.6ZM4.4 22C4.4 11.1752 13.1752 2.4 24 2.4V1.6C12.7334 1.6 3.6 10.7334 3.6 22H4.4ZM24 2.4C34.8248 2.4 43.6 11.1752 43.6 22H44.4C44.4 10.7334 35.2666 1.6 24 1.6V2.4Z" fill="black" mask="url(#path-1-inside-1_10806_2)"/>
<g clip-path="url(#clip0_10806_2)">
<path d="M29.1994 24.7151L29.1995 24.7152C29.6065 25.02 29.6891 25.5971 29.3837 26.0028L29.3829 26.0038C29.203 26.2461 28.9278 26.3725 28.6458 26.3725C28.4534 26.3725 28.2604 26.3128 28.0945 26.1883L28.0945 26.1883L23.6117 22.8262L23.6113 22.8259C23.3799 22.6533 23.2435 22.38 23.2435 22.0897V15.3655C23.2435 14.8562 23.6549 14.4448 24.1642 14.4448C24.6735 14.4448 25.0849 14.8562 25.0849 15.3655V21.5293V21.6293L25.1649 21.6893L29.1994 24.7151Z" fill="#F4F7FA" stroke="black" stroke-width="0.4"/>
<path d="M9.89617 22C9.89617 14.1323 16.2965 7.73192 24.1643 7.73192C32.032 7.73192 38.4323 14.1323 38.4323 22C38.4323 29.8677 32.032 36.2681 24.1643 36.2681C16.2965 36.2681 9.89617 29.8677 9.89617 22ZM11.7375 22C11.7375 28.8514 17.3129 34.4267 24.1643 34.4267C31.0156 34.4267 36.591 28.8514 36.591 22C36.591 15.1486 31.0168 9.57329 24.1643 9.57329C17.3129 9.57329 11.7375 15.1486 11.7375 22Z" fill="#F4F7FA" stroke="black" stroke-width="0.4"/>
</g>
</g>
<g filter="url(#filter1_dd_10806_2)">
<mask id="path-6-inside-2_10806_2" fill="white">
<path fill-rule="evenodd" clip-rule="evenodd" d="M30.7747 0.301929C35.9987 1.62446 39.9168 7.13573 39.9168 13.7337C39.9168 20.3317 35.9987 25.8429 30.7748 27.1655C31.7027 27.3633 32.6653 27.4674 33.6523 27.4674C41.2372 27.4674 47.386 21.3186 47.386 13.7337C47.386 6.14877 41.2372 -2.28882e-05 33.6523 -2.28882e-05C32.6653 -2.28882e-05 31.7027 0.10409 30.7747 0.301929Z"/>
</mask>
<path fill-rule="evenodd" clip-rule="evenodd" d="M30.7747 0.301929C35.9987 1.62446 39.9168 7.13573 39.9168 13.7337C39.9168 20.3317 35.9987 25.8429 30.7748 27.1655C31.7027 27.3633 32.6653 27.4674 33.6523 27.4674C41.2372 27.4674 47.386 21.3186 47.386 13.7337C47.386 6.14877 41.2372 -2.28882e-05 33.6523 -2.28882e-05C32.6653 -2.28882e-05 31.7027 0.10409 30.7747 0.301929Z" fill="#7247FF"/>
<path fill-rule="evenodd" clip-rule="evenodd" d="M30.7747 0.301929C35.9987 1.62446 39.9168 7.13573 39.9168 13.7337C39.9168 20.3317 35.9987 25.8429 30.7748 27.1655C31.7027 27.3633 32.6653 27.4674 33.6523 27.4674C41.2372 27.4674 47.386 21.3186 47.386 13.7337C47.386 6.14877 41.2372 -2.28882e-05 33.6523 -2.28882e-05C32.6653 -2.28882e-05 31.7027 0.10409 30.7747 0.301929Z" fill="url(#paint0_linear_10806_2)"/>
<path d="M30.7747 0.301929L30.7121 0.00852394L30.7011 0.592754L30.7747 0.301929ZM30.7748 27.1655L30.7012 26.8747L30.7122 27.4589L30.7748 27.1655ZM30.7011 0.592754C35.7646 1.87466 39.6168 7.24268 39.6168 13.7337H40.2168C40.2168 7.02878 36.2328 1.37426 30.8483 0.0111046L30.7011 0.592754ZM39.6168 13.7337C39.6168 20.2247 35.7646 25.5927 30.7012 26.8747L30.8484 27.4563C36.2328 26.0931 40.2168 20.4386 40.2168 13.7337H39.6168ZM33.6523 27.1674C32.6865 27.1674 31.7448 27.0655 30.8373 26.8721L30.7122 27.4589C31.6606 27.6611 32.6442 27.7674 33.6523 27.7674V27.1674ZM47.086 13.7337C47.086 21.1529 41.0715 27.1674 33.6523 27.1674V27.7674C41.4029 27.7674 47.686 21.4843 47.686 13.7337H47.086ZM33.6523 0.299976C41.0715 0.299976 47.086 6.31446 47.086 13.7337H47.686C47.686 5.98309 41.4029 -0.300022 33.6523 -0.300022V0.299976ZM30.8372 0.595335C31.7448 0.401852 32.6864 0.299976 33.6523 0.299976V-0.300022C32.6441 -0.300022 31.6605 -0.193672 30.7121 0.00852394L30.8372 0.595335Z" fill="black" mask="url(#path-6-inside-2_10806_2)"/>
</g>
<defs>
<filter id="filter0_dd_10806_2" x="0" y="2" width="48" height="48" filterUnits="userSpaceOnUse" color-interpolation-filters="sRGB">
<feFlood flood-opacity="0" result="BackgroundImageFix"/>
<feColorMatrix in="SourceAlpha" type="matrix" values="0 0 0 0 0 0 0 0 0 0 0 0 0 0 0 0 0 0 127 0" result="hardAlpha"/>
<feOffset dy="4"/>
<feGaussianBlur stdDeviation="2"/>
<feComposite in2="hardAlpha" operator="out"/>
<feColorMatrix type="matrix" values="0 0 0 0 0 0 0 0 0 0 0 0 0 0 0 0 0 0 0.25 0"/>
<feBlend mode="normal" in2="BackgroundImageFix" result="effect1_dropShadow_10806_2"/>
<feColorMatrix in="SourceAlpha" type="matrix" values="0 0 0 0 0 0 0 0 0 0 0 0 0 0 0 0 0 0 127 0" result="hardAlpha"/>
<feOffset dy="4"/>
<feGaussianBlur stdDeviation="2"/>
<feComposite in2="hardAlpha" operator="out"/>
<feColorMatrix type="matrix" values="0 0 0 0 0 0 0 0 0 0 0 0 0 0 0 0 0 0 0.25 0"/>
<feBlend mode="normal" in2="effect1_dropShadow_10806_2" result="effect2_dropShadow_10806_2"/>
<feBlend mode="normal" in="SourceGraphic" in2="effect2_dropShadow_10806_2" result="shape"/>
</filter>
<filter id="filter1_dd_10806_2" x="26.7747" y="0" width="24.6113" height="35.4674" filterUnits="userSpaceOnUse" color-interpolation-filters="sRGB">
<feFlood flood-opacity="0" result="BackgroundImageFix"/>
<feColorMatrix in="SourceAlpha" type="matrix" values="0 0 0 0 0 0 0 0 0 0 0 0 0 0 0 0 0 0 127 0" result="hardAlpha"/>
<feOffset dy="4"/>
<feGaussianBlur stdDeviation="2"/>
<feComposite in2="hardAlpha" operator="out"/>
<feColorMatrix type="matrix" values="0 0 0 0 0 0 0 0 0 0 0 0 0 0 0 0 0 0 0.25 0"/>
<feBlend mode="normal" in2="BackgroundImageFix" result="effect1_dropShadow_10806_2"/>
<feColorMatrix in="SourceAlpha" type="matrix" values="0 0 0 0 0 0 0 0 0 0 0 0 0 0 0 0 0 0 127 0" result="hardAlpha"/>
<feOffset dy="4"/>
<feGaussianBlur stdDeviation="2"/>
<feComposite in2="hardAlpha" operator="out"/>
<feColorMatrix type="matrix" values="0 0 0 0 0 0 0 0 0 0 0 0 0 0 0 0 0 0 0.25 0"/>
<feBlend mode="normal" in2="effect1_dropShadow_10806_2" result="effect2_dropShadow_10806_2"/>
<feBlend mode="normal" in="SourceGraphic" in2="effect2_dropShadow_10806_2" result="shape"/>
</filter>
<linearGradient id="paint0_linear_10806_2" x1="39.0803" y1="27.4674" x2="39.0803" y2="-2.28882e-05" gradientUnits="userSpaceOnUse">
<stop stop-color="#4614E8"/>
<stop offset="1" stop-color="#BCA7FF"/>
</linearGradient>
<clipPath id="clip0_10806_2">
<rect x="9.69617" y="7.53192" width="28.9362" height="28.9362" fill="white"/>
</clipPath>
</defs>
</svg>
