<svg width="45" height="62" viewBox="0 0 45 62" fill="none" xmlns="http://www.w3.org/2000/svg">
<rect x="4" y="4" width="41" height="58" rx="5" fill="url(#paint0_linear_10806_6)"/>
<line x1="1.5" y1="-1.5" x2="29.418" y2="-1.5" transform="matrix(-1 0 0 1 40.9672 16)" stroke="url(#paint1_linear_10806_6)" stroke-width="3" stroke-linecap="round"/>
<line x1="1.5" y1="-1.5" x2="29.418" y2="-1.5" transform="matrix(-1 0 0 1 40.9672 22)" stroke="url(#paint2_linear_10806_6)" stroke-width="3" stroke-linecap="round"/>
<line x1="1.5" y1="-1.5" x2="29.418" y2="-1.5" transform="matrix(-1 0 0 1 40.9672 28)" stroke="url(#paint3_linear_10806_6)" stroke-width="3" stroke-linecap="round"/>
<line x1="1.5" y1="-1.5" x2="29.418" y2="-1.5" transform="matrix(-1 0 0 1 40.9672 34)" stroke="url(#paint4_linear_10806_6)" stroke-width="3" stroke-linecap="round"/>
<line x1="20.6475" y1="50.8333" x2="11.5492" y2="50.8333" stroke="url(#paint5_linear_10806_6)" stroke-width="3" stroke-linecap="round"/>
<rect width="41" height="59" rx="5" fill="url(#paint6_linear_10806_6)" fill-opacity="0.5"/>
<g clip-path="url(#clip0_10806_6)">
<path fill-rule="evenodd" clip-rule="evenodd" d="M40.9346 50.5101C40.9054 50.6862 40.8779 50.8525 40.8777 51.0037C40.8774 51.1646 40.9045 51.3371 40.9331 51.5196L40.9333 51.5205C40.9907 51.8859 41.05 52.2637 40.9018 52.6206C40.7536 52.9775 40.444 53.2021 40.1446 53.4193L40.1442 53.4196C39.9945 53.5282 39.8531 53.6308 39.7392 53.7446C39.6322 53.8514 39.5339 53.9883 39.4298 54.1332L39.4297 54.1333C39.2216 54.4228 38.9859 54.751 38.613 54.905C38.442 54.9757 38.2654 55 38.0905 55C37.8843 55 37.6802 54.9662 37.4899 54.9346C37.3138 54.9054 37.1475 54.8779 36.9962 54.8777H36.9943C36.8338 54.8777 36.6617 54.9047 36.4796 54.9333L36.4794 54.9333L36.4793 54.9334C36.114 54.9907 35.7362 55.0501 35.3794 54.9019C35.0225 54.7537 34.7979 54.4441 34.5807 54.1447L34.5807 54.1447C34.472 53.9948 34.3693 53.8533 34.2554 53.7393C34.1486 53.6323 34.0117 53.5339 33.8668 53.4298L33.8666 53.4297L33.8666 53.4297C33.5771 53.2217 33.249 52.9859 33.095 52.6131C32.941 52.2403 33.0071 51.8416 33.0654 51.49C33.0946 51.3138 33.1221 51.1475 33.1223 50.9963C33.1226 50.8353 33.0954 50.6626 33.0667 50.4798L33.0667 50.4795C33.0093 50.1141 32.9499 49.7362 33.0981 49.3794C33.2464 49.0225 33.5559 48.7979 33.8553 48.5807L33.8555 48.5806C34.0053 48.4719 34.1468 48.3692 34.2607 48.2554C34.3677 48.1486 34.466 48.0117 34.5702 47.8668L34.5703 47.8666C34.7783 47.5771 35.0141 47.249 35.3869 47.095C35.7597 46.941 36.1583 47.0071 36.51 47.0654L36.51 47.0654L36.5102 47.0654C36.6863 47.0946 36.8526 47.1221 37.0037 47.1223H37.0056C37.1662 47.1223 37.3382 47.0953 37.5204 47.0667L37.5205 47.0667C37.8859 47.0092 38.2637 46.9499 38.6206 47.0981C38.9775 47.2463 39.202 47.5559 39.4192 47.8552L39.4193 47.8553L39.4194 47.8555C39.5281 48.0053 39.6308 48.1468 39.7446 48.2607C39.8514 48.3677 39.9882 48.466 40.1331 48.5701L40.1334 48.5703L40.1334 48.5703C40.4229 48.7783 40.751 49.0141 40.905 49.3869V49.3869C41.059 49.7597 40.9929 50.1584 40.9346 50.5101ZM34.1109 52.2207C34.2384 52.5221 34.4103 52.7986 34.6231 53.0454L34.9559 52.7127C34.5672 52.2494 34.3331 51.6521 34.3331 51C34.3331 49.5271 35.5271 48.3331 37 48.3331C37.652 48.3331 38.2493 48.5673 38.7127 48.9559L39.0454 48.6232C38.7986 48.4103 38.5221 48.2384 38.2207 48.1109C37.8338 47.9473 37.4231 47.8643 37 47.8643C36.5769 47.8643 36.1662 47.9473 35.7793 48.1109C35.4059 48.2689 35.0706 48.4949 34.7827 48.7827C34.4949 49.0706 34.2689 49.4059 34.1109 49.7793C33.9473 50.1662 33.8643 50.5769 33.8643 51C33.8643 51.4231 33.9473 51.8338 34.1109 52.2207ZM39.2173 53.2173C39.5051 52.9295 39.7311 52.5942 39.8891 52.2207C40.0527 51.8338 40.1357 51.4231 40.1357 51C40.1357 50.5769 40.0527 50.1662 39.889 49.7793C39.7616 49.4779 39.5897 49.2014 39.3768 48.9546L39.0441 49.2874C39.4327 49.7507 39.6669 50.348 39.6669 51C39.6669 52.4729 38.4729 53.6669 37 53.6669C36.3479 53.6669 35.7507 53.4328 35.2873 53.0442L34.9546 53.3769C35.2014 53.5898 35.4779 53.7616 35.7793 53.8891C36.1662 54.0527 36.5769 54.1357 37 54.1357C37.4231 54.1357 37.8338 54.0527 38.2207 53.8891C38.5941 53.7312 38.9294 53.5051 39.2173 53.2173Z" fill="url(#paint7_linear_10806_6)"/>
</g>
<defs>
<linearGradient id="paint0_linear_10806_6" x1="12.8431" y1="4" x2="45" y2="4" gradientUnits="userSpaceOnUse">
<stop stop-color="#E1D8FF"/>
<stop offset="1" stop-color="#F4ECFF"/>
</linearGradient>
<linearGradient id="paint1_linear_10806_6" x1="2.68852" y1="0" x2="27.2213" y2="0" gradientUnits="userSpaceOnUse">
<stop stop-color="#BBA6FF"/>
<stop offset="1" stop-color="#CDBBEF"/>
</linearGradient>
<linearGradient id="paint2_linear_10806_6" x1="2.68852" y1="0" x2="27.2213" y2="0" gradientUnits="userSpaceOnUse">
<stop stop-color="#BBA6FF"/>
<stop offset="1" stop-color="#CDBBEF"/>
</linearGradient>
<linearGradient id="paint3_linear_10806_6" x1="2.68852" y1="0" x2="27.2213" y2="0" gradientUnits="userSpaceOnUse">
<stop stop-color="#BBA6FF"/>
<stop offset="1" stop-color="#CDBBEF"/>
</linearGradient>
<linearGradient id="paint4_linear_10806_6" x1="2.68852" y1="0" x2="27.2213" y2="0" gradientUnits="userSpaceOnUse">
<stop stop-color="#BBA6FF"/>
<stop offset="1" stop-color="#CDBBEF"/>
</linearGradient>
<linearGradient id="paint5_linear_10806_6" x1="21.0955" y1="49.3333" x2="11.4957" y2="49.3333" gradientUnits="userSpaceOnUse">
<stop stop-color="#BBA6FF"/>
<stop offset="1" stop-color="#CDBBEF"/>
</linearGradient>
<linearGradient id="paint6_linear_10806_6" x1="8.84314" y1="0" x2="41" y2="0" gradientUnits="userSpaceOnUse">
<stop stop-color="#E1D8FF"/>
<stop offset="1" stop-color="#F4ECFF"/>
</linearGradient>
<linearGradient id="paint7_linear_10806_6" x1="37" y1="47" x2="37" y2="55" gradientUnits="userSpaceOnUse">
<stop stop-color="#4614E8"/>
<stop offset="1" stop-color="#BCA7FF"/>
</linearGradient>
<clipPath id="clip0_10806_6">
<rect width="8" height="8" fill="white" transform="translate(33 47)"/>
</clipPath>
</defs>
</svg>
